<mxfile host="app.diagrams.net" modified="2024-03-11T21:50:45.678Z" agent="Mozilla/5.0 (Windows NT 10.0; Win64; x64) AppleWebKit/537.36 (KHTML, like Gecko) Chrome/122.0.0.0 Safari/537.36" etag="xhpuBAEPWaPCEMBiCAkc" version="21.2.3" type="github">
  <diagram name="Page-1" id="lmXRmJkIMhFL2fE3QQ50">
    <mxGraphModel dx="2340" dy="1314" grid="1" gridSize="10" guides="1" tooltips="1" connect="1" arrows="1" fold="1" page="1" pageScale="1" pageWidth="1200" pageHeight="1600" math="0" shadow="0">
      <root>
        <mxCell id="0" />
        <mxCell id="1" parent="0" />
        <mxCell id="rhuTxu-Osm9jdPOAiRgq-22" value="" style="verticalLabelPosition=bottom;html=1;verticalAlign=top;align=center;strokeColor=none;fillColor=#00BEF2;shape=mxgraph.azure.github_code;pointerEvents=1;" vertex="1" parent="1">
          <mxGeometry x="60" y="672.5" width="80" height="80" as="geometry" />
        </mxCell>
        <mxCell id="rhuTxu-Osm9jdPOAiRgq-63" value="" style="rounded=0;whiteSpace=wrap;html=1;movable=1;resizable=1;rotatable=1;deletable=1;editable=1;locked=0;connectable=1;glass=0;labelBorderColor=default;labelBackgroundColor=#CCFF99;container=0;" vertex="1" parent="1">
          <mxGeometry x="236" y="220" width="920" height="1070" as="geometry" />
        </mxCell>
        <mxCell id="rhuTxu-Osm9jdPOAiRgq-125" style="edgeStyle=orthogonalEdgeStyle;rounded=0;orthogonalLoop=1;jettySize=auto;html=1;entryX=0;entryY=0.5;entryDx=0;entryDy=0;" edge="1" parent="1" source="rhuTxu-Osm9jdPOAiRgq-9" target="rhuTxu-Osm9jdPOAiRgq-10">
          <mxGeometry relative="1" as="geometry" />
        </mxCell>
        <mxCell id="rhuTxu-Osm9jdPOAiRgq-9" value="Jenkins Server" style="points=[[0,0],[0.25,0],[0.5,0],[0.75,0],[1,0],[1,0.25],[1,0.5],[1,0.75],[1,1],[0.75,1],[0.5,1],[0.25,1],[0,1],[0,0.75],[0,0.5],[0,0.25]];outlineConnect=0;gradientColor=none;html=1;whiteSpace=wrap;fontSize=22;fontStyle=0;container=1;pointerEvents=0;collapsible=0;recursiveResize=0;shape=mxgraph.aws4.group;grIcon=mxgraph.aws4.group_ec2_instance_contents;strokeColor=#D86613;fillColor=none;verticalAlign=top;align=left;spacingLeft=30;fontColor=#D86613;dashed=0;" vertex="1" parent="1">
          <mxGeometry x="320" y="610" width="280" height="205" as="geometry" />
        </mxCell>
        <mxCell id="rhuTxu-Osm9jdPOAiRgq-28" value="" style="sketch=0;outlineConnect=0;fontColor=#232F3E;gradientColor=none;fillColor=#3F8624;strokeColor=none;dashed=0;verticalLabelPosition=bottom;verticalAlign=top;align=center;html=1;fontSize=12;fontStyle=0;aspect=fixed;pointerEvents=1;shape=mxgraph.aws4.iot_analytics_pipeline;" vertex="1" parent="rhuTxu-Osm9jdPOAiRgq-9">
          <mxGeometry x="101" y="81.5" width="78" height="42" as="geometry" />
        </mxCell>
        <mxCell id="rhuTxu-Osm9jdPOAiRgq-38" value="Jenkins Server" style="text;strokeColor=none;fillColor=none;html=1;fontSize=24;fontStyle=1;verticalAlign=middle;align=center;" vertex="1" parent="rhuTxu-Osm9jdPOAiRgq-9">
          <mxGeometry x="90" y="130" width="100" height="40" as="geometry" />
        </mxCell>
        <mxCell id="rhuTxu-Osm9jdPOAiRgq-31" style="edgeStyle=orthogonalEdgeStyle;rounded=0;orthogonalLoop=1;jettySize=auto;html=1;entryX=0.5;entryY=0;entryDx=0;entryDy=0;" edge="1" parent="1" source="rhuTxu-Osm9jdPOAiRgq-7" target="rhuTxu-Osm9jdPOAiRgq-9">
          <mxGeometry relative="1" as="geometry" />
        </mxCell>
        <mxCell id="rhuTxu-Osm9jdPOAiRgq-10" value="Edge Server" style="points=[[0,0],[0.25,0],[0.5,0],[0.75,0],[1,0],[1,0.25],[1,0.5],[1,0.75],[1,1],[0.75,1],[0.5,1],[0.25,1],[0,1],[0,0.75],[0,0.5],[0,0.25]];outlineConnect=0;gradientColor=none;html=1;whiteSpace=wrap;fontSize=21;fontStyle=0;container=1;pointerEvents=0;collapsible=0;recursiveResize=0;shape=mxgraph.aws4.group;grIcon=mxgraph.aws4.group_ec2_instance_contents;strokeColor=#D86613;fillColor=none;verticalAlign=top;align=left;spacingLeft=30;fontColor=#D86613;dashed=0;" vertex="1" parent="1">
          <mxGeometry x="810" y="605" width="280" height="215" as="geometry" />
        </mxCell>
        <mxCell id="rhuTxu-Osm9jdPOAiRgq-13" value="Frontend Container" style="swimlane;" vertex="1" parent="rhuTxu-Osm9jdPOAiRgq-10">
          <mxGeometry x="10" y="70" width="120" height="80" as="geometry" />
        </mxCell>
        <mxCell id="rhuTxu-Osm9jdPOAiRgq-40" value="&lt;b style=&quot;font-size: 17px;&quot;&gt;3000 Port&amp;nbsp;&lt;/b&gt;" style="text;html=1;align=center;verticalAlign=middle;resizable=0;points=[];autosize=1;strokeColor=none;fillColor=none;fontSize=17;" vertex="1" parent="rhuTxu-Osm9jdPOAiRgq-13">
          <mxGeometry x="10" y="35" width="100" height="30" as="geometry" />
        </mxCell>
        <mxCell id="rhuTxu-Osm9jdPOAiRgq-12" value="Backend Container" style="swimlane;" vertex="1" parent="rhuTxu-Osm9jdPOAiRgq-10">
          <mxGeometry x="150" y="70" width="120" height="80" as="geometry" />
        </mxCell>
        <mxCell id="rhuTxu-Osm9jdPOAiRgq-41" value="&lt;b style=&quot;font-size: 19px;&quot;&gt;3001 Port&lt;/b&gt;" style="text;html=1;align=center;verticalAlign=middle;resizable=0;points=[];autosize=1;strokeColor=none;fillColor=none;fontSize=19;" vertex="1" parent="rhuTxu-Osm9jdPOAiRgq-12">
          <mxGeometry y="30" width="110" height="40" as="geometry" />
        </mxCell>
        <mxCell id="rhuTxu-Osm9jdPOAiRgq-32" style="edgeStyle=orthogonalEdgeStyle;rounded=0;orthogonalLoop=1;jettySize=auto;html=1;exitX=1;exitY=0.5;exitDx=0;exitDy=0;exitPerimeter=0;" edge="1" parent="1" source="rhuTxu-Osm9jdPOAiRgq-7" target="rhuTxu-Osm9jdPOAiRgq-10">
          <mxGeometry relative="1" as="geometry">
            <Array as="points">
              <mxPoint x="980" y="460" />
            </Array>
          </mxGeometry>
        </mxCell>
        <mxCell id="rhuTxu-Osm9jdPOAiRgq-11" value="&lt;font style=&quot;font-size: 27px;&quot;&gt;Security Group&lt;/font&gt;" style="fillColor=none;strokeColor=#DD3522;verticalAlign=top;fontStyle=0;fontColor=#DD3522;whiteSpace=wrap;html=1;container=1;" vertex="1" parent="1">
          <mxGeometry x="485" y="880" width="400" height="360" as="geometry" />
        </mxCell>
        <mxCell id="rhuTxu-Osm9jdPOAiRgq-33" style="edgeStyle=orthogonalEdgeStyle;rounded=0;orthogonalLoop=1;jettySize=auto;html=1;" edge="1" parent="1" source="rhuTxu-Osm9jdPOAiRgq-7" target="rhuTxu-Osm9jdPOAiRgq-11">
          <mxGeometry relative="1" as="geometry">
            <Array as="points">
              <mxPoint x="685" y="840" />
              <mxPoint x="685" y="840" />
            </Array>
          </mxGeometry>
        </mxCell>
        <mxCell id="rhuTxu-Osm9jdPOAiRgq-30" style="edgeStyle=orthogonalEdgeStyle;rounded=0;orthogonalLoop=1;jettySize=auto;html=1;entryX=0.436;entryY=0.011;entryDx=0;entryDy=0;entryPerimeter=0;" edge="1" parent="1" source="rhuTxu-Osm9jdPOAiRgq-9" target="rhuTxu-Osm9jdPOAiRgq-11">
          <mxGeometry relative="1" as="geometry" />
        </mxCell>
        <mxCell id="rhuTxu-Osm9jdPOAiRgq-20" value="" style="edgeStyle=orthogonalEdgeStyle;rounded=0;orthogonalLoop=1;jettySize=auto;html=1;" edge="1" parent="1" source="rhuTxu-Osm9jdPOAiRgq-10" target="rhuTxu-Osm9jdPOAiRgq-11">
          <mxGeometry relative="1" as="geometry">
            <Array as="points">
              <mxPoint x="950" y="850" />
              <mxPoint x="710" y="850" />
            </Array>
          </mxGeometry>
        </mxCell>
        <mxCell id="rhuTxu-Osm9jdPOAiRgq-14" value="" style="outlineConnect=0;dashed=0;verticalLabelPosition=bottom;verticalAlign=top;align=center;html=1;shape=mxgraph.aws3.ecr;fillColor=#F58534;gradientColor=none;" vertex="1" parent="1">
          <mxGeometry x="950" y="1061.5673913043477" width="69" height="88.43478260869564" as="geometry" />
        </mxCell>
        <mxCell id="rhuTxu-Osm9jdPOAiRgq-7" value="" style="outlineConnect=0;dashed=0;verticalLabelPosition=bottom;verticalAlign=top;align=center;html=1;shape=mxgraph.aws3.vpc;fillColor=#F58534;gradientColor=none;" vertex="1" parent="1">
          <mxGeometry x="651.25" y="410.54347826086956" width="67.5" height="99.4891304347826" as="geometry" />
        </mxCell>
        <mxCell id="rhuTxu-Osm9jdPOAiRgq-76" value="" style="edgeStyle=orthogonalEdgeStyle;rounded=0;orthogonalLoop=1;jettySize=auto;html=1;" edge="1" parent="1" source="rhuTxu-Osm9jdPOAiRgq-64" target="rhuTxu-Osm9jdPOAiRgq-7">
          <mxGeometry relative="1" as="geometry" />
        </mxCell>
        <mxCell id="rhuTxu-Osm9jdPOAiRgq-64" value="" style="outlineConnect=0;dashed=0;verticalLabelPosition=bottom;verticalAlign=top;align=center;html=1;shape=mxgraph.aws3.iam;fillColor=#759C3E;gradientColor=none;" vertex="1" parent="1">
          <mxGeometry x="664" y="240.00434782608693" width="42" height="99.4891304347826" as="geometry" />
        </mxCell>
        <mxCell id="rhuTxu-Osm9jdPOAiRgq-77" style="edgeStyle=orthogonalEdgeStyle;rounded=0;orthogonalLoop=1;jettySize=auto;html=1;" edge="1" parent="1" source="rhuTxu-Osm9jdPOAiRgq-13" target="rhuTxu-Osm9jdPOAiRgq-14">
          <mxGeometry relative="1" as="geometry">
            <Array as="points">
              <mxPoint x="900" y="1110" />
            </Array>
          </mxGeometry>
        </mxCell>
        <mxCell id="rhuTxu-Osm9jdPOAiRgq-81" style="edgeStyle=orthogonalEdgeStyle;rounded=0;orthogonalLoop=1;jettySize=auto;html=1;" edge="1" parent="1" source="rhuTxu-Osm9jdPOAiRgq-12" target="rhuTxu-Osm9jdPOAiRgq-14">
          <mxGeometry relative="1" as="geometry">
            <Array as="points">
              <mxPoint x="1040" y="1110" />
            </Array>
          </mxGeometry>
        </mxCell>
        <mxCell id="rhuTxu-Osm9jdPOAiRgq-83" style="edgeStyle=orthogonalEdgeStyle;rounded=0;orthogonalLoop=1;jettySize=auto;html=1;" edge="1" parent="1" source="rhuTxu-Osm9jdPOAiRgq-22" target="rhuTxu-Osm9jdPOAiRgq-9">
          <mxGeometry relative="1" as="geometry" />
        </mxCell>
        <mxCell id="rhuTxu-Osm9jdPOAiRgq-107" value="&lt;ol style=&quot;font-size: 18px;&quot;&gt;&lt;li style=&quot;font-size: 18px;&quot;&gt;3000(App port)&lt;/li&gt;&lt;li style=&quot;font-size: 18px;&quot;&gt;3001(app port)&lt;/li&gt;&lt;li style=&quot;font-size: 18px;&quot;&gt;80(HTTP port)&lt;/li&gt;&lt;li style=&quot;font-size: 18px;&quot;&gt;22(SSH port)&lt;/li&gt;&lt;li style=&quot;font-size: 18px;&quot;&gt;5000(Jenkins Agent port)&lt;/li&gt;&lt;li style=&quot;font-size: 18px;&quot;&gt;8080(Jenkins port)&lt;/li&gt;&lt;/ol&gt;" style="text;html=1;strokeColor=none;fillColor=none;align=left;verticalAlign=middle;whiteSpace=wrap;rounded=0;fontSize=18;" vertex="1" parent="1">
          <mxGeometry x="470" y="1090.78" width="60" height="30" as="geometry" />
        </mxCell>
        <mxCell id="rhuTxu-Osm9jdPOAiRgq-108" value="Inbound Rules" style="text;html=1;strokeColor=none;fillColor=none;align=center;verticalAlign=middle;whiteSpace=wrap;rounded=0;fontSize=20;" vertex="1" parent="1">
          <mxGeometry x="510" y="940" width="60" height="30" as="geometry" />
        </mxCell>
        <mxCell id="rhuTxu-Osm9jdPOAiRgq-111" value="Outbound Rules" style="text;html=1;strokeColor=none;fillColor=none;align=center;verticalAlign=middle;whiteSpace=wrap;rounded=0;fontSize=20;" vertex="1" parent="1">
          <mxGeometry x="760" y="940" width="60" height="30" as="geometry" />
        </mxCell>
        <mxCell id="rhuTxu-Osm9jdPOAiRgq-112" value="&lt;ol&gt;&lt;li&gt;Open for All&lt;/li&gt;&lt;/ol&gt;" style="text;html=1;strokeColor=none;fillColor=none;align=center;verticalAlign=middle;whiteSpace=wrap;rounded=0;fontSize=20;" vertex="1" parent="1">
          <mxGeometry x="700" y="1019.9999999999999" width="160" height="30" as="geometry" />
        </mxCell>
        <mxCell id="rhuTxu-Osm9jdPOAiRgq-116" value="IAM USER" style="text;html=1;strokeColor=none;fillColor=none;align=center;verticalAlign=middle;whiteSpace=wrap;rounded=0;fontSize=20;" vertex="1" parent="1">
          <mxGeometry x="740" y="260" width="100" height="31" as="geometry" />
        </mxCell>
        <mxCell id="rhuTxu-Osm9jdPOAiRgq-117" value="VPC" style="text;html=1;strokeColor=none;fillColor=none;align=center;verticalAlign=middle;whiteSpace=wrap;rounded=0;fontSize=20;" vertex="1" parent="1">
          <mxGeometry x="730" y="410.53999999999996" width="100" height="31" as="geometry" />
        </mxCell>
        <mxCell id="rhuTxu-Osm9jdPOAiRgq-122" value="Github Repository" style="text;html=1;strokeColor=none;fillColor=none;align=center;verticalAlign=middle;whiteSpace=wrap;rounded=0;fontSize=20;" vertex="1" parent="1">
          <mxGeometry x="50" y="590" width="100" height="31" as="geometry" />
        </mxCell>
        <mxCell id="rhuTxu-Osm9jdPOAiRgq-123" value="Single Security Group for both instances" style="text;html=1;strokeColor=none;fillColor=none;align=center;verticalAlign=middle;whiteSpace=wrap;rounded=0;fontSize=20;" vertex="1" parent="1">
          <mxGeometry x="560" y="1250" width="211.25" height="31" as="geometry" />
        </mxCell>
        <mxCell id="rhuTxu-Osm9jdPOAiRgq-124" value="ECR Repository" style="text;html=1;strokeColor=none;fillColor=none;align=center;verticalAlign=middle;whiteSpace=wrap;rounded=0;fontSize=20;" vertex="1" parent="1">
          <mxGeometry x="940" y="1180" width="100" height="31" as="geometry" />
        </mxCell>
      </root>
    </mxGraphModel>
  </diagram>
</mxfile>
